<svg
  xmlns="http://www.w3.org/2000/svg"
  id="voice"
  x="0"
  y="0"
  version="1.1"
  viewBox="0 0 29 29"
  xml:space="preserve"
>
  <path
    d="M12.5 7.5a.5.5 0 00-.5.5v13a.5.5 0 001 0V8a.5.5 0 00-.5-.5zM8.5 9.5a.5.5 0 00-.5.5v9a.5.5 0 001 0v-9a.5.5 0 00-.5-.5zM4.5 12a.5.5 0 00-.5.5v4a.5.5 0 001 0v-4a.5.5 0 00-.5-.5zM2.5 13a.5.5 0 00-.5.5v2a.5.5 0 001 0v-2a.5.5 0 00-.5-.5zM16.5 11.5a.5.5 0 00-.5.5v5a.5.5 0 001 0v-5a.5.5 0 00-.5-.5zM14.5 10a.5.5 0 00-.5.5v8a.5.5 0 001 0v-8a.5.5 0 00-.5-.5zM10.5 6a.5.5 0 00-.5.5v16a.5.5 0 001 0v-16a.5.5 0 00-.5-.5zM6.5 11.5a.5.5 0 00-.5.5v5a.5.5 0 001 0v-5a.5.5 0 00-.5-.5zM18.5 10a.5.5 0 00-.5.5v8a.5.5 0 001 0v-8a.5.5 0 00-.5-.5zM20.5 9a.5.5 0 00-.5.5v10a.5.5 0 001 0v-10a.5.5 0 00-.5-.5zM24.5 12a.5.5 0 00-.5.5v4a.5.5 0 001 0v-4a.5.5 0 00-.5-.5zM22.5 10.5a.5.5 0 00-.5.5v7a.5.5 0 001 0v-7a.5.5 0 00-.5-.5zM26.5 13a.5.5 0 00-.5.5v2a.5.5 0 001 0v-2a.5.5 0 00-.5-.5z"
  ></path>
</svg>
